<?xml version="1.0" standalone="no"?>
<!DOCTYPE svg PUBLIC "-//W3C//DTD SVG 20010904//EN"
 "http://www.w3.org/TR/2001/REC-SVG-20010904/DTD/svg10.dtd">
<svg version="1.0" xmlns="http://www.w3.org/2000/svg"
 width="1280.000000pt" height="1280.000000pt" viewBox="0 0 1280.000000 1280.000000"
 preserveAspectRatio="xMidYMid meet">

<g transform="translate(0.000000,1280.000000) scale(0.100000,-0.100000)"
fill="#000000" stroke="none">
<path d="M6190 12794 c-1098 -44 -2089 -330 -3020 -872 -714 -415 -1375 -1006
-1889 -1686 -731 -967 -1166 -2132 -1262 -3376 -15 -198 -15 -719 0 -920 86
-1122 440 -2159 1054 -3080 396 -596 920 -1151 1492 -1580 978 -735 2131
-1165 3375 -1261 200 -16 720 -16 920 0 1245 96 2397 526 3375 1261 470 354
933 816 1284 1285 737 982 1166 2129 1262 3375 16 200 16 720 0 920 -87 1126
-439 2157 -1053 3080 -397 596 -918 1148 -1493 1580 -971 730 -2155 1174
-3360 1259 -159 11 -557 20 -685 15z m760 -688 c851 -85 1673 -355 2386 -783
636 -383 1206 -894 1645 -1478 1143 -1519 1457 -3502 840 -5309 -491 -1439
-1564 -2643 -2946 -3307 -1175 -564 -2527 -707 -3810 -404 -1546 366 -2888
1383 -3673 2785 -789 1411 -940 3109 -413 4654 452 1324 1397 2453 2631 3144
712 398 1498 636 2335 706 218 19 783 14 1005 -8z"/>
<path d="M6167 9950 c-60 -5 -114 -11 -122 -13 -7 -3 -18 -37 -25 -79 -33
-199 -69 -381 -77 -388 -11 -10 -562 -163 -592 -164 -20 -1 -45 29 -153 179
-71 99 -135 181 -142 183 -18 4 -254 -115 -381 -193 -60 -37 -160 -103 -222
-147 l-112 -80 19 -47 c10 -25 50 -126 89 -224 l71 -178 -27 -33 c-16 -18
-112 -125 -216 -238 l-187 -205 -218 89 c-141 58 -222 86 -231 81 -31 -19
-293 -476 -279 -487 1 -2 48 -28 104 -59 95 -52 158 -83 298 -147 l60 -27 112
145 c310 399 535 631 785 808 112 79 107 71 -33 -65 -147 -142 -297 -306 -415
-453 -136 -171 -324 -471 -306 -489 5 -5 59 -27 121 -49 l112 -40 46 93 c55
110 187 311 277 422 76 94 273 288 372 366 347 275 776 455 1220 510 130 17
453 17 580 0 801 -102 1481 -569 1861 -1277 31 -57 60 -104 65 -104 5 0 26 6
46 14 21 8 71 26 111 41 l73 27 -37 66 c-158 284 -357 536 -659 836 -165 165
-168 168 -95 118 262 -179 479 -400 800 -812 86 -109 119 -145 134 -143 26 2
208 88 348 165 l107 59 -15 34 c-20 48 -88 176 -147 275 -50 83 -145 230 -150
230 -1 0 -104 -34 -227 -75 -123 -41 -229 -75 -235 -75 -11 0 -209 197 -383
381 l-72 76 100 205 c55 113 100 210 100 215 0 10 -15 21 -120 94 -132 92
-427 259 -457 259 -5 0 -80 -79 -167 -175 -109 -121 -164 -174 -175 -171 -210
61 -594 176 -598 180 -1 1 -7 87 -13 191 -6 105 -13 208 -16 231 l-5 41 -117
12 c-155 16 -450 22 -585 11z"/>
<path d="M1746 9086 c-124 -796 409 -1403 1619 -1844 138 -50 395 -135 508
-167 31 -9 57 -18 57 -21 0 -9 -414 51 -590 86 -573 115 -1008 299 -1399 591
l-44 33 7 -50 c25 -177 92 -317 215 -446 272 -287 744 -454 1558 -553 115 -14
230 -25 254 -26 35 0 39 -2 23 -9 -41 -16 -417 -33 -604 -27 -262 9 -459 35
-672 88 -128 32 -307 93 -376 128 -24 12 -47 20 -50 17 -3 -3 15 -48 41 -99
127 -255 379 -406 797 -478 121 -21 166 -23 440 -23 280 0 503 14 618 40 36 8
17 -13 -36 -40 -73 -36 -196 -73 -322 -97 -198 -36 -696 -37 -874 -2 l-30 6
22 -31 c28 -39 130 -116 204 -153 158 -80 306 -104 570 -96 197 6 322 27 537
86 61 17 114 31 117 31 16 0 -52 -44 -123 -79 -171 -86 -380 -133 -595 -135
-76 0 -138 -3 -138 -6 1 -8 208 -100 285 -127 165 -57 341 -68 550 -33 66 11
125 20 130 20 15 0 -42 -45 -110 -87 l-60 -37 70 -22 c39 -12 87 -24 108 -28
l37 -7 0 924 0 923 -92 24 c-151 37 -403 123 -556 189 -692 296 -1272 743
-1952 1504 -67 75 -124 137 -125 137 -1 0 -10 -47 -19 -104z"/>
<path d="M10956 9104 c-696 -788 -1310 -1265 -2007 -1559 -148 -63 -403 -149
-546 -185 l-93 -24 0 -923 0 -924 38 7 c20 4 68 16 107 28 l70 22 -60 37 c-68
42 -125 87 -110 87 6 0 64 -9 130 -20 210 -35 380 -24 551 34 75 25 283 118
284 126 0 3 -60 5 -133 6 -244 1 -483 62 -667 170 -34 20 -59 38 -57 40 2 3
55 -9 117 -26 216 -60 341 -81 538 -87 264 -8 412 16 570 96 73 37 176 114
203 153 l22 30 -39 -6 c-166 -27 -556 -35 -729 -16 -180 20 -353 64 -457 116
-53 27 -72 48 -36 40 116 -26 337 -41 623 -40 279 0 323 2 439 23 417 74 667
225 793 478 26 51 44 96 41 99 -3 3 -25 -4 -48 -16 -68 -35 -255 -98 -379
-129 -312 -78 -669 -105 -1055 -82 -109 7 -208 16 -220 21 -16 7 -12 9 23 9
68 1 448 49 605 76 603 104 977 260 1207 503 123 129 190 269 215 446 l7 50
-44 -33 c-413 -309 -882 -499 -1504 -610 -175 -32 -476 -73 -483 -66 -2 2 23
11 55 20 107 30 337 106 491 161 791 285 1308 651 1521 1078 102 205 137 371
128 605 -4 80 -12 175 -19 210 l-13 64 -79 -89z"/>
<path d="M4720 6635 l0 -715 653 0 652 0 178 349 c97 192 177 354 177 360 0 8
-60 11 -190 11 -104 0 -190 2 -190 4 0 2 22 51 49 108 27 56 64 137 84 178 19
41 58 125 87 185 29 61 65 138 81 173 l28 62 -804 0 -805 0 0 -715z m900 15
l0 -110 -305 0 -305 1 0 110 0 109 305 0 305 0 0 -110z"/>
<path d="M6682 7127 l-174 -222 168 -5 167 -5 -401 -483 c-221 -265 -402 -485
-402 -487 0 -3 466 -5 1035 -5 l1035 0 0 715 0 715 -627 0 -628 0 -173 -223z
m868 -267 l0 -100 100 0 101 0 -3 -107 -3 -108 -97 -3 -98 -3 0 -100 0 -100
-107 3 -108 3 -3 97 -3 97 -97 3 -97 3 0 105 0 105 98 3 97 3 0 99 0 100 110
0 110 0 0 -100z"/>
<path d="M3010 4385 l0 -797 328 4 c297 4 333 6 389 25 164 54 249 159 274
339 20 141 -5 288 -60 358 -27 34 -85 85 -121 107 -12 7 -10 13 15 31 52 39
87 81 114 138 24 50 26 66 26 180 0 114 -2 130 -26 181 -50 106 -129 169 -255
205 -48 14 -118 18 -371 21 l-313 5 0 -797z m551 482 c48 -31 67 -106 50 -190
-19 -86 -52 -109 -178 -120 l-53 -4 0 170 0 170 78 -5 c49 -3 87 -11 103 -21z
m-2 -626 c59 -28 76 -61 79 -159 3 -75 0 -93 -20 -132 -28 -55 -61 -69 -165
-69 l-73 -1 0 196 0 195 73 -6 c39 -4 87 -14 106 -24z"/>
<path d="M4140 4385 l0 -795 185 0 185 0 0 330 0 330 130 0 130 0 0 -330 0
-330 180 0 180 0 0 795 0 795 -180 0 -180 0 0 -305 0 -305 -130 0 -130 0 0
305 0 305 -185 0 -185 0 0 -795z"/>
<path d="M5650 5176 c0 -3 -34 -159 -75 -348 -105 -485 -265 -1229 -265 -1234
0 -2 83 -4 183 -4 l184 0 17 123 c9 67 19 137 22 155 l6 32 143 0 c140 0 143
0 148 -22 3 -13 15 -83 28 -155 l22 -133 184 0 c140 0 183 3 183 13 0 6 -7 41
-16 77 -8 36 -33 150 -55 253 -21 103 -43 207 -49 230 -8 35 -94 437 -194 907
l-22 105 -222 3 c-122 1 -222 0 -222 -2z m274 -641 c25 -181 46 -336 46 -342
0 -10 -28 -13 -106 -13 l-106 0 5 28 c3 15 27 172 53 350 27 177 51 319 54
315 4 -5 28 -156 54 -338z"/>
<path d="M6610 4385 l0 -795 180 0 180 0 2 313 3 312 84 0 c82 0 84 -1 110
-33 43 -51 51 -92 61 -322 5 -118 12 -227 16 -242 l6 -28 199 0 c109 0 199 3
199 8 0 4 -10 32 -21 62 -19 47 -23 85 -29 270 -8 226 -17 279 -55 346 -26 44
-57 69 -112 88 l-34 12 49 32 c115 74 166 225 142 419 -26 205 -126 309 -332
343 -35 5 -195 10 -355 10 l-293 0 0 -795z m556 482 c44 -23 64 -78 64 -175 0
-93 -24 -153 -69 -176 -20 -11 -57 -16 -111 -16 l-80 0 0 196 0 197 83 -5 c48
-3 95 -11 113 -21z"/>
<path d="M8155 5168 c-3 -7 -36 -159 -75 -338 -67 -311 -191 -890 -243 -1127
l-24 -113 182 0 c181 0 183 0 189 23 3 12 13 82 23 155 l17 132 146 0 146 0
24 -145 c13 -79 26 -149 30 -155 4 -7 68 -10 187 -8 l180 3 -123 575 c-68 316
-144 670 -169 786 -25 116 -45 213 -45 217 0 4 -99 7 -220 7 -167 0 -222 -3
-225 -12z m270 -608 c24 -173 47 -330 50 -347 l6 -33 -106 0 c-94 0 -105 2
-105 18 0 10 14 108 30 218 30 196 69 458 71 472 2 21 13 -43 54 -328z"/>
<path d="M8860 5020 l0 -160 140 0 140 0 0 -635 0 -635 185 0 185 0 0 635 0
634 148 3 147 3 3 158 3 157 -476 0 -475 0 0 -160z"/>
<path d="M3078 3344 c-50 -27 -58 -58 -58 -229 l0 -155 25 0 25 0 0 158 c0
171 3 180 56 196 51 15 106 -43 83 -87 -17 -31 -28 -37 -76 -37 -39 0 -43 -2
-43 -25 0 -24 3 -25 53 -25 63 0 87 -19 87 -68 0 -41 -31 -62 -92 -62 -45 0
-48 -2 -48 -26 0 -26 1 -26 60 -22 73 5 111 30 124 80 11 43 2 82 -25 109 -18
18 -18 21 -4 42 19 27 19 80 0 116 -24 48 -111 66 -167 35z"/>
<path d="M5748 3199 l-3 -151 -28 -24 c-51 -44 -115 -25 -137 41 -28 85 53
156 131 115 16 -9 19 -7 19 14 0 21 -7 27 -39 36 -86 23 -161 -38 -161 -132 0
-51 30 -105 70 -125 14 -7 44 -13 68 -13 34 0 49 6 78 33 44 40 53 79 54 240
l0 117 -24 0 -25 0 -3 -151z"/>
<path d="M5990 3155 l0 -195 25 0 25 0 0 176 0 177 46 -6 c86 -9 137 -66 136
-152 -1 -73 -33 -119 -95 -136 -23 -6 -47 -13 -54 -15 -6 -1 -9 -12 -6 -24 5
-18 11 -20 42 -14 100 17 161 88 161 188 0 66 -12 102 -48 139 -43 46 -74 57
-157 57 l-75 0 0 -195z"/>
<path d="M8370 3218 c1 -157 10 -205 45 -235 35 -31 111 -32 149 -2 l26 20 26
-20 c19 -15 41 -21 76 -21 42 0 54 4 78 30 34 36 40 71 40 233 l0 127 -24 0
-25 0 -3 -156 c-3 -150 -4 -157 -27 -175 -30 -24 -62 -24 -92 0 -23 18 -24 25
-27 175 -4 143 -5 156 -22 156 -17 0 -18 -13 -22 -156 -3 -150 -4 -157 -27
-175 -32 -26 -67 -24 -96 6 -24 23 -25 28 -25 175 l0 150 -25 0 -25 0 0 -132z"/>
<path d="M9370 3155 c0 -188 1 -195 20 -195 18 0 20 7 20 65 l0 65 34 0 c48 0
66 -22 66 -81 0 -46 2 -49 25 -49 24 0 25 3 25 56 0 49 -4 60 -28 82 l-28 26
34 50 34 51 -23 4 c-15 2 -28 -4 -34 -14 -37 -64 -53 -80 -78 -83 l-27 -3 0
110 c0 104 -1 111 -20 111 -19 0 -20 -7 -20 -195z"/>
<path d="M3655 3288 c-3 -7 -4 -73 -2 -147 3 -132 3 -133 30 -157 37 -32 107
-34 107 -4 0 15 -7 20 -26 20 -56 0 -64 13 -64 105 l0 85 45 0 c38 0 45 3 45
20 0 17 -7 20 -45 20 -45 0 -45 0 -45 35 0 29 -4 35 -20 35 -11 0 -23 -6 -25
-12z"/>
<path d="M3840 3165 c0 -181 12 -204 108 -205 28 0 32 3 32 25 0 22 -3 25 -24
19 -13 -3 -34 -1 -45 6 -19 10 -21 20 -21 95 l0 85 45 0 c38 0 45 3 45 20 0
17 -7 20 -45 20 -45 0 -45 0 -45 35 0 31 -3 35 -25 35 l-25 0 0 -135z"/>
<path d="M3426 3230 c-53 -17 -96 -76 -96 -132 0 -37 40 -108 71 -123 58 -30
129 -13 129 31 0 24 -1 24 -22 10 -34 -24 -66 -19 -99 13 -42 43 -37 112 10
148 26 20 88 16 111 -7 16 -16 20 -34 21 -97 2 -109 1 -108 27 -111 21 -3 22
-1 22 90 0 75 -4 99 -20 126 -28 46 -97 70 -154 52z"/>
<path d="M4113 3229 c-102 -30 -123 -186 -33 -247 50 -34 129 -28 170 14 16
16 32 41 35 57 6 24 4 27 -19 27 -17 0 -26 -5 -26 -15 0 -25 -50 -65 -81 -65
-15 0 -41 12 -58 26 -26 22 -31 33 -31 70 0 34 6 51 25 69 27 28 80 34 108 12
16 -11 11 -16 -48 -50 -66 -38 -70 -43 -57 -64 5 -8 33 3 95 38 48 28 87 54
87 59 0 12 -69 70 -83 70 -7 0 -21 2 -32 4 -11 3 -34 0 -52 -5z"/>
<path d="M4430 3233 c-8 -3 -23 -12 -32 -21 -16 -14 -18 -13 -18 1 0 10 -8 17
-20 17 -19 0 -20 -7 -20 -135 0 -128 1 -135 20 -135 18 0 20 7 20 75 0 88 18
140 52 150 27 9 38 23 31 42 -5 14 -9 15 -33 6z"/>
<path d="M5015 3226 c-96 -43 -114 -173 -34 -241 53 -44 149 -30 149 21 0 24
-1 24 -22 10 -47 -33 -109 -9 -128 50 -30 90 70 161 144 103 25 -19 26 -25 26
-115 0 -87 1 -94 20 -94 22 0 22 1 20 119 -1 40 -6 84 -13 98 -21 46 -109 73
-162 49z"/>
<path d="M5325 3230 c-11 -4 -31 -20 -45 -35 -23 -24 -25 -36 -28 -131 l-4
-104 26 0 26 0 0 93 c0 107 13 137 61 137 55 0 69 -28 69 -135 0 -88 1 -95 20
-95 19 0 20 7 20 103 0 116 -10 140 -66 163 -37 16 -50 16 -79 4z"/>
<path d="M6405 3226 c-96 -43 -114 -173 -34 -241 53 -44 149 -30 149 21 0 24
-1 24 -22 10 -72 -51 -160 33 -124 117 24 59 89 76 140 36 25 -19 26 -25 26
-115 0 -92 0 -94 24 -94 23 0 23 1 19 93 -5 117 -14 141 -67 167 -49 23 -69
24 -111 6z"/>
<path d="M6973 3226 c-54 -24 -67 -56 -67 -165 -1 -92 0 -96 22 -99 21 -3 22
-1 22 92 0 108 14 136 69 136 48 0 61 -30 61 -137 0 -93 0 -93 25 -93 25 0 25
1 25 85 0 51 -6 99 -14 120 -25 58 -88 85 -143 61z"/>
<path d="M7276 3230 c-112 -34 -130 -201 -27 -255 64 -32 145 -11 181 48 26
42 25 57 -3 57 -15 0 -26 -9 -35 -28 -23 -54 -92 -68 -136 -27 -57 53 -21 165
53 165 35 0 61 -9 61 -21 0 -5 -25 -23 -55 -40 -62 -35 -69 -43 -58 -63 6 -11
26 -3 96 37 83 47 87 51 74 70 -33 49 -97 73 -151 57z"/>
<path d="M7548 3225 c-42 -23 -48 -45 -48 -159 0 -99 1 -106 20 -106 19 0 20
7 20 93 0 107 14 140 58 135 39 -4 52 -40 52 -140 0 -81 2 -88 20 -88 19 0 20
7 20 99 0 107 10 131 54 131 39 0 46 -18 46 -127 l0 -103 25 0 25 0 0 100 c0
120 -13 153 -65 170 -30 10 -41 9 -75 -8 -32 -16 -41 -17 -52 -6 -21 21 -70
26 -100 9z"/>
<path d="M7982 3228 c-51 -17 -84 -67 -84 -127 0 -84 49 -141 123 -141 44 0
69 17 69 46 0 24 -1 24 -22 10 -34 -24 -66 -19 -99 13 -38 39 -39 87 -3 130
20 25 34 31 64 31 22 0 47 -8 61 -19 22 -17 24 -29 27 -115 4 -86 6 -96 23
-96 17 0 19 8 19 93 0 53 -6 102 -13 116 -27 54 -101 80 -165 59z"/>
<path d="M8943 3221 c-91 -42 -105 -162 -26 -231 33 -30 41 -32 90 -28 75 6
114 44 121 119 6 68 -16 111 -73 139 -51 24 -59 25 -112 1z m118 -57 c36 -38
34 -107 -4 -140 -39 -33 -81 -31 -118 5 -38 39 -39 87 -3 130 34 41 89 43 125
5z"/>
<path d="M9285 3233 c-11 -3 -28 -12 -37 -21 -16 -14 -18 -14 -18 1 0 10 -8
17 -20 17 -19 0 -20 -7 -20 -135 0 -128 1 -135 20 -135 18 0 20 7 20 75 0 91
18 142 54 151 19 4 26 13 26 30 0 13 -1 23 -2 23 -2 -1 -12 -4 -23 -6z"/>
<path d="M4510 3140 c0 -107 15 -152 59 -175 29 -14 31 -19 31 -70 0 -48 2
-55 20 -55 18 0 20 7 20 59 0 55 2 59 29 71 45 18 61 63 61 169 0 90 0 91 -25
91 -25 0 -25 0 -25 -98 0 -109 -11 -132 -62 -132 -47 0 -63 32 -66 136 -4 85
-6 94 -23 94 -17 0 -19 -8 -19 -90z"/>
<path d="M6639 3218 c0 -7 0 -56 1 -108 1 -82 4 -98 22 -117 12 -13 29 -25 40
-29 15 -4 18 -16 18 -65 0 -52 2 -59 20 -59 18 0 20 7 20 54 0 51 2 55 35 75
46 27 55 53 55 167 0 87 -1 94 -20 94 -18 0 -20 -7 -20 -86 0 -81 -10 -120
-34 -136 -20 -14 -56 -8 -76 12 -17 17 -20 33 -20 115 0 88 -1 95 -20 95 -11
0 -20 -6 -21 -12z"/>
<path d="M9626 3209 c-55 -43 -25 -97 74 -131 51 -18 65 -28 65 -43 0 -18 -8
-20 -82 -23 -81 -3 -83 -3 -83 -27 0 -24 2 -25 75 -25 88 0 119 12 136 52 17
42 -11 77 -87 104 -104 38 -98 74 14 74 55 0 62 2 62 20 0 18 -7 20 -74 20
-59 0 -78 -4 -100 -21z"/>
</g>
</svg>
