<svg xmlns="http://www.w3.org/2000/svg" xmlns:xlink="http://www.w3.org/1999/xlink" width="601" zoomAndPan="magnify" viewBox="0 0 450.75 202.499994" height="270" preserveAspectRatio="xMidYMid meet" version="1.0"><defs><g/><clipPath id="id1"><path d="M 0.429688 0 L 450.070312 0 L 450.070312 202 L 0.429688 202 Z M 0.429688 0 " clip-rule="nonzero"/></clipPath><clipPath id="id2"><path d="M 140.019531 121.976562 L 143.707031 121.976562 L 143.707031 124.222656 L 140.019531 124.222656 Z M 140.019531 121.976562 " clip-rule="nonzero"/></clipPath><clipPath id="id3"><path d="M 148.621094 90.894531 L 150.871094 90.894531 L 150.871094 118.703125 L 148.621094 118.703125 Z M 148.621094 90.894531 " clip-rule="nonzero"/></clipPath><clipPath id="id4"><path d="M 142.476562 117.066406 L 150.871094 117.066406 L 150.871094 124.222656 L 142.476562 124.222656 Z M 142.476562 117.066406 " clip-rule="nonzero"/></clipPath><clipPath id="id5"><path d="M 148.621094 82.511719 L 150.871094 82.511719 L 150.871094 99.277344 L 148.621094 99.277344 Z M 148.621094 82.511719 " clip-rule="nonzero"/></clipPath><clipPath id="id6"><path d="M 131.414062 80.058594 L 149 80.058594 L 149 122 L 131.414062 122 Z M 131.414062 80.058594 " clip-rule="nonzero"/></clipPath><clipPath id="id7"><path d="M 153.492188 112.183594 L 167.714844 112.183594 L 167.714844 117.851562 L 153.492188 117.851562 Z M 153.492188 112.183594 " clip-rule="nonzero"/></clipPath><clipPath id="id8"><path d="M 165.550781 103.816406 L 177.109375 103.816406 L 177.109375 117.664062 L 165.550781 117.664062 Z M 165.550781 103.816406 " clip-rule="nonzero"/></clipPath><clipPath id="id9"><path d="M 151 83.425781 L 177 83.425781 L 177 117 L 151 117 Z M 151 83.425781 " clip-rule="nonzero"/></clipPath></defs><g clip-path="url(#id1)"><path fill="#ffffff" d="M 0.429688 0 L 450.320312 0 L 450.320312 208.851562 L 0.429688 208.851562 Z M 0.429688 0 " fill-opacity="1" fill-rule="nonzero"/><path fill="#ffffff" d="M 0.429688 0 L 450.320312 0 L 450.320312 202.113281 L 0.429688 202.113281 Z M 0.429688 0 " fill-opacity="1" fill-rule="nonzero"/><path fill="#ffffff" d="M 0.429688 0 L 450.320312 0 L 450.320312 202.113281 L 0.429688 202.113281 Z M 0.429688 0 " fill-opacity="1" fill-rule="nonzero"/></g><path fill="#ee97d0" d="M 133.933594 89.507812 L 133.933594 91.742188 L 137.503906 91.742188 L 137.503906 89.507812 L 133.933594 89.507812 " fill-opacity="1" fill-rule="nonzero"/><g clip-path="url(#id2)"><path fill="#ee97d0" d="M 143.601562 121.992188 L 140.023438 121.992188 L 140.023438 124.226562 L 142.554688 124.226562 C 142.617188 123.910156 142.707031 123.601562 142.828125 123.296875 C 143.019531 122.8125 143.285156 122.382812 143.601562 121.992188 " fill-opacity="1" fill-rule="nonzero"/></g><path fill="#ee97d0" d="M 148.351562 118.703125 L 148.351562 90.882812 C 148.125 90.824219 147.894531 90.773438 147.671875 90.703125 C 146.050781 90.214844 144.773438 88.746094 144.511719 87.074219 C 144.457031 86.742188 144.4375 86.394531 144.261719 86.109375 C 143.785156 85.355469 142.652344 85.585938 141.789062 85.8125 C 140.101562 86.257812 138.085938 86.234375 136.871094 84.988281 C 136.234375 84.332031 135.945312 83.480469 135.839844 82.570312 L 133.933594 82.570312 L 133.933594 89.230469 L 137.78125 89.230469 L 137.78125 91.742188 L 140.023438 91.742188 L 140.023438 95.238281 C 140.9375 95.992188 141.902344 96.664062 142.980469 97.15625 C 144.375 97.792969 146.144531 98.355469 146.472656 99.851562 C 146.757812 101.164062 145.710938 102.351562 144.785156 103.324219 C 143.855469 104.296875 142.898438 105.609375 143.386719 106.863281 C 143.8125 107.960938 145.234375 108.578125 145.308594 109.75 C 145.347656 110.351562 145 110.90625 144.609375 111.363281 C 143.390625 112.8125 141.710938 113.742188 140.023438 114.660156 L 140.023438 121.71875 L 143.835938 121.71875 C 145.007812 120.425781 146.75 119.582031 148.351562 118.703125 " fill-opacity="1" fill-rule="nonzero"/><g clip-path="url(#id3)"><path fill="#ee97d0" d="M 149.457031 95.863281 C 149.53125 95.070312 149.839844 94.316406 149.960938 93.53125 C 150.082031 92.742188 149.964844 91.839844 149.347656 91.332031 C 149.136719 91.160156 148.890625 91.050781 148.628906 90.96875 L 148.628906 118.546875 C 148.679688 118.519531 148.730469 118.492188 148.78125 118.464844 C 149.5 118.054688 150.199219 117.605469 150.871094 117.121094 L 150.871094 99.179688 C 149.933594 98.351562 149.339844 97.113281 149.457031 95.863281 " fill-opacity="1" fill-rule="nonzero"/></g><path fill="#c3ebef" d="M 143.835938 121.71875 L 148.351562 121.71875 L 148.351562 118.703125 C 146.75 119.582031 145.007812 120.425781 143.835938 121.71875 " fill-opacity="1" fill-rule="nonzero"/><g clip-path="url(#id4)"><path fill="#c3ebef" d="M 148.628906 118.546875 L 148.628906 121.992188 L 143.601562 121.992188 C 143.285156 122.382812 143.019531 122.8125 142.828125 123.296875 C 142.707031 123.601562 142.617188 123.910156 142.554688 124.226562 L 150.871094 124.226562 L 150.871094 117.121094 C 150.199219 117.605469 149.5 118.054688 148.78125 118.464844 C 148.730469 118.492188 148.679688 118.519531 148.628906 118.546875 " fill-opacity="1" fill-rule="nonzero"/></g><g clip-path="url(#id5)"><path fill="#f36735" d="M 148.628906 82.570312 L 148.628906 90.96875 C 148.890625 91.050781 149.136719 91.160156 149.347656 91.332031 C 149.964844 91.839844 150.082031 92.742188 149.960938 93.53125 C 149.839844 94.316406 149.53125 95.070312 149.457031 95.863281 C 149.339844 97.113281 149.933594 98.351562 150.871094 99.179688 L 150.871094 82.570312 L 148.628906 82.570312 " fill-opacity="1" fill-rule="nonzero"/></g><path fill="#f36735" d="M 136.871094 84.988281 C 138.085938 86.234375 140.101562 86.257812 141.789062 85.8125 C 142.652344 85.585938 143.785156 85.355469 144.261719 86.109375 C 144.4375 86.394531 144.457031 86.742188 144.511719 87.074219 C 144.773438 88.746094 146.050781 90.214844 147.671875 90.703125 C 147.894531 90.773438 148.125 90.824219 148.351562 90.882812 L 148.351562 82.570312 L 135.839844 82.570312 C 135.945312 83.480469 136.234375 84.332031 136.871094 84.988281 " fill-opacity="1" fill-rule="nonzero"/><path fill="#22456d" d="M 144.609375 111.363281 C 145 110.90625 145.347656 110.351562 145.308594 109.75 C 145.234375 108.578125 143.8125 107.960938 143.386719 106.863281 C 142.898438 105.609375 143.855469 104.296875 144.785156 103.324219 C 145.710938 102.351562 146.757812 101.164062 146.472656 99.851562 C 146.144531 98.355469 144.375 97.792969 142.980469 97.15625 C 141.902344 96.664062 140.9375 95.992188 140.023438 95.238281 L 140.023438 114.660156 C 141.710938 113.742188 143.390625 112.8125 144.609375 111.363281 " fill-opacity="1" fill-rule="nonzero"/><g clip-path="url(#id6)"><path fill="#e3bce2" d="M 137.78125 121.71875 L 137.78125 89.230469 L 131.691406 89.230469 L 131.691406 80.335938 L 148.351562 80.335938 L 148.351562 121.71875 Z M 148.628906 121.992188 L 148.628906 80.058594 L 131.414062 80.058594 L 131.414062 89.507812 L 137.503906 89.507812 L 137.503906 121.992188 L 148.628906 121.992188 " fill-opacity="1" fill-rule="nonzero"/></g><path fill="#c3ebef" d="M 166.679688 102.4375 C 165.894531 101.773438 164.945312 101.433594 163.863281 101.433594 C 163.648438 101.433594 163.4375 101.453125 163.238281 101.476562 L 163.238281 103.132812 C 163.542969 103.078125 163.824219 103.03125 164.074219 102.988281 C 164.324219 102.949219 164.589844 102.929688 164.867188 102.929688 C 165.78125 102.929688 166.589844 103.160156 167.300781 103.621094 C 167.316406 103.484375 167.328125 103.347656 167.332031 103.214844 C 167.15625 102.917969 166.9375 102.660156 166.679688 102.4375 " fill-opacity="1" fill-rule="nonzero"/><path fill="#c3ebef" d="M 165.96875 100.558594 C 165.585938 99.761719 166.085938 98.765625 165.722656 97.964844 C 165.707031 97.929688 165.6875 97.894531 165.667969 97.863281 C 165.234375 98.03125 164.742188 98.117188 164.199219 98.117188 C 164.085938 98.117188 163.953125 98.117188 163.800781 98.117188 C 163.648438 98.117188 163.460938 98.105469 163.238281 98.078125 L 163.238281 101.265625 C 163.4375 101.242188 163.648438 101.230469 163.863281 101.230469 C 165 101.230469 165.992188 101.582031 166.816406 102.28125 C 167.003906 102.445312 167.171875 102.625 167.320312 102.824219 C 167.289062 102.421875 167.175781 102.042969 166.933594 101.707031 C 166.640625 101.300781 166.183594 101.007812 165.96875 100.558594 " fill-opacity="1" fill-rule="nonzero"/><path fill="#f36735" d="M 176.375 103.9375 C 176.199219 103.5625 175.992188 103.203125 175.753906 102.867188 C 175.714844 102.816406 175.679688 102.765625 175.640625 102.71875 C 175.785156 103.085938 175.902344 103.46875 175.988281 103.867188 C 176.117188 103.886719 176.246094 103.910156 176.375 103.9375 " fill-opacity="1" fill-rule="nonzero"/><path fill="#f36735" d="M 171.574219 90.789062 C 171.0625 91.503906 170.480469 92.199219 170.191406 93.027344 C 169.90625 93.859375 169.996094 94.890625 170.675781 95.457031 C 170.929688 95.671875 171.265625 95.820312 171.425781 96.109375 C 171.78125 96.75 171.082031 97.429688 170.609375 97.992188 C 169.1875 99.683594 169.917969 102.6875 172.003906 103.46875 C 173.132812 103.890625 174.390625 103.699219 175.59375 103.816406 C 175.652344 103.824219 175.710938 103.832031 175.769531 103.839844 C 175.625 103.226562 175.421875 102.660156 175.148438 102.132812 C 174.3125 101.246094 173.253906 100.605469 171.972656 100.214844 C 172.277344 100.015625 172.5625 99.804688 172.832031 99.582031 C 172.265625 99.21875 171.632812 98.929688 170.9375 98.714844 L 170.726562 98.652344 L 170.910156 98.53125 C 171.949219 97.859375 172.761719 97.046875 173.320312 96.121094 C 173.878906 95.195312 174.164062 93.988281 174.164062 92.535156 C 174.164062 91.183594 173.921875 89.945312 173.441406 88.851562 C 173.347656 88.644531 173.246094 88.441406 173.136719 88.242188 C 173.117188 88.222656 173.101562 88.199219 173.082031 88.175781 C 172.664062 89.09375 172.160156 89.96875 171.574219 90.789062 " fill-opacity="1" fill-rule="nonzero"/><path fill="#f36735" d="M 173.5 96.222656 C 172.957031 97.125 172.183594 97.917969 171.203125 98.585938 C 171.859375 98.804688 172.457031 99.089844 172.996094 99.441406 C 173.570312 98.9375 174.042969 98.378906 174.414062 97.769531 C 174.984375 96.824219 175.269531 95.609375 175.269531 94.128906 C 175.269531 92.757812 175.027344 91.519531 174.539062 90.410156 C 174.308594 89.878906 174.023438 89.382812 173.695312 88.929688 C 174.144531 90.007812 174.371094 91.21875 174.371094 92.535156 C 174.371094 94.023438 174.078125 95.265625 173.5 96.222656 " fill-opacity="1" fill-rule="nonzero"/><path fill="#c3ebef" d="M 158.082031 93.828125 C 158.082031 93.816406 158.085938 93.800781 158.089844 93.789062 L 153.800781 93.789062 C 153.695312 94.265625 153.605469 94.765625 153.542969 95.28125 L 158.117188 95.28125 C 158.042969 94.800781 158.027344 94.3125 158.082031 93.828125 " fill-opacity="1" fill-rule="nonzero"/><path fill="#c3ebef" d="M 161.214844 89.28125 C 162.5 88.613281 163.996094 88.425781 165.28125 87.765625 C 166.257812 87.265625 167.128906 86.316406 167.277344 85.300781 C 166.542969 85.183594 165.765625 85.125 164.949219 85.125 C 163.363281 85.125 161.914062 85.351562 160.605469 85.804688 C 159.296875 86.253906 158.15625 86.914062 157.179688 87.777344 C 156.203125 88.640625 155.402344 89.703125 154.777344 90.964844 C 154.378906 91.765625 154.070312 92.636719 153.84375 93.582031 L 158.117188 93.582031 C 158.398438 91.78125 159.578125 90.132812 161.214844 89.28125 " fill-opacity="1" fill-rule="nonzero"/><path fill="#22456d" d="M 164.90625 113.355469 C 164.3125 112.429688 162.917969 112.703125 161.804688 112.691406 C 160.746094 112.679688 159.695312 112.289062 158.890625 111.609375 C 157.375 110.320312 156.878906 108.210938 155.613281 106.683594 C 155.574219 106.636719 155.53125 106.59375 155.492188 106.546875 L 152.125 106.546875 C 152.125 107.476562 152.214844 108.394531 152.394531 109.300781 C 152.507812 109.867188 152.691406 110.4375 152.941406 111.003906 C 154.050781 112.683594 155.472656 113.949219 157.183594 114.765625 C 159.109375 115.6875 161.300781 116.152344 163.695312 116.152344 C 164.320312 116.152344 164.933594 116.121094 165.527344 116.0625 C 165.375 115.800781 165.265625 115.515625 165.214844 115.210938 C 165.113281 114.585938 165.246094 113.894531 164.90625 113.355469 " fill-opacity="1" fill-rule="nonzero"/><g clip-path="url(#id7)"><path fill="#22456d" d="M 165.652344 116.257812 C 165.019531 116.324219 164.367188 116.359375 163.695312 116.359375 C 161.269531 116.359375 159.046875 115.886719 157.089844 114.949219 C 155.738281 114.304688 154.5625 113.386719 153.578125 112.210938 C 154.734375 114.136719 156.253906 115.554688 158.140625 116.453125 C 160.089844 117.386719 162.277344 117.851562 164.699219 117.851562 C 165.710938 117.851562 166.675781 117.773438 167.59375 117.617188 C 166.820312 117.375 166.101562 116.898438 165.652344 116.257812 " fill-opacity="1" fill-rule="nonzero"/></g><path fill="#ee97d0" d="M 163.445312 90.25 C 162.476562 90.25 161.6875 90.570312 161.101562 91.203125 C 160.507812 91.839844 160.207031 92.675781 160.207031 93.683594 L 160.207031 93.789062 L 158.089844 93.789062 C 158.085938 93.800781 158.082031 93.816406 158.082031 93.828125 C 158.027344 94.3125 158.042969 94.800781 158.117188 95.28125 L 161.109375 95.28125 C 161.109375 94.238281 161.414062 93.390625 162.027344 92.730469 C 162.640625 92.074219 163.445312 91.746094 164.449219 91.746094 C 165.230469 91.746094 165.894531 91.945312 166.4375 92.335938 C 166.300781 91.851562 166.050781 91.433594 165.691406 91.085938 C 165.117188 90.53125 164.359375 90.25 163.445312 90.25 " fill-opacity="1" fill-rule="nonzero"/><path fill="#ee97d0" d="M 160.230469 106.546875 L 159.59375 106.546875 C 159.78125 107.140625 160.070312 107.644531 160.457031 108.050781 C 160.328125 107.597656 160.25 107.097656 160.230469 106.546875 " fill-opacity="1" fill-rule="nonzero"/><path fill="#ee97d0" d="M 167.300781 103.621094 C 167.410156 103.691406 167.515625 103.769531 167.625 103.855469 C 167.546875 103.625 167.449219 103.410156 167.332031 103.214844 C 167.328125 103.347656 167.316406 103.484375 167.300781 103.621094 " fill-opacity="1" fill-rule="nonzero"/><g clip-path="url(#id8)"><path fill="#ee97d0" d="M 176.375 103.9375 C 176.246094 103.910156 176.117188 103.886719 175.988281 103.867188 C 176.136719 104.527344 176.210938 105.230469 176.210938 105.976562 C 176.210938 107.519531 175.898438 108.945312 175.28125 110.214844 C 174.664062 111.484375 173.789062 112.589844 172.683594 113.5 C 171.578125 114.40625 170.246094 115.117188 168.722656 115.613281 C 167.761719 115.925781 166.734375 116.140625 165.652344 116.257812 C 166.101562 116.898438 166.820312 117.375 167.59375 117.617188 C 168.320312 117.496094 169.023438 117.332031 169.695312 117.113281 C 171.210938 116.621094 172.519531 115.921875 173.621094 115.015625 C 174.722656 114.109375 175.578125 113.027344 176.191406 111.769531 C 176.804688 110.507812 177.109375 109.109375 177.109375 107.574219 C 177.109375 106.203125 176.863281 104.992188 176.375 103.9375 " fill-opacity="1" fill-rule="nonzero"/></g><path fill="#ee97d0" d="M 155.613281 106.683594 C 156.878906 108.210938 157.375 110.320312 158.890625 111.609375 C 159.695312 112.289062 160.746094 112.679688 161.804688 112.691406 C 162.917969 112.703125 164.3125 112.429688 164.90625 113.355469 C 165.246094 113.894531 165.113281 114.585938 165.214844 115.210938 C 165.265625 115.515625 165.375 115.800781 165.527344 116.0625 C 166.632812 115.949219 167.679688 115.738281 168.65625 115.417969 C 170.15625 114.933594 171.464844 114.234375 172.550781 113.339844 C 173.632812 112.449219 174.488281 111.371094 175.09375 110.128906 C 175.695312 108.886719 176.003906 107.488281 176.003906 105.976562 C 176.003906 105.21875 175.921875 104.503906 175.769531 103.839844 C 175.710938 103.832031 175.652344 103.824219 175.59375 103.816406 C 174.390625 103.699219 173.132812 103.890625 172.003906 103.46875 C 169.917969 102.6875 169.1875 99.683594 170.609375 97.992188 C 171.082031 97.429688 171.78125 96.75 171.425781 96.109375 C 171.265625 95.820312 170.929688 95.671875 170.675781 95.457031 C 169.996094 94.890625 169.90625 93.859375 170.191406 93.027344 C 170.480469 92.199219 171.0625 91.503906 171.574219 90.789062 C 172.160156 89.96875 172.664062 89.09375 173.082031 88.175781 C 172.882812 87.964844 172.675781 87.761719 172.449219 87.570312 C 171.546875 86.789062 170.460938 86.1875 169.191406 85.761719 C 168.585938 85.558594 167.949219 85.40625 167.277344 85.300781 C 167.128906 86.316406 166.257812 87.265625 165.28125 87.765625 C 163.996094 88.425781 162.5 88.613281 161.214844 89.28125 C 159.578125 90.132812 158.398438 91.78125 158.117188 93.582031 L 160 93.582031 C 160.019531 92.5625 160.339844 91.71875 160.945312 91.066406 C 161.578125 90.390625 162.417969 90.046875 163.445312 90.046875 C 164.417969 90.046875 165.222656 90.347656 165.839844 90.9375 C 166.292969 91.375 166.578125 91.914062 166.699219 92.546875 C 166.722656 92.570312 166.746094 92.585938 166.769531 92.609375 C 167.367188 93.183594 167.667969 93.9375 167.667969 94.871094 C 167.667969 95.828125 167.347656 96.609375 166.707031 97.210938 C 166.402344 97.496094 166.058594 97.710938 165.667969 97.863281 C 165.6875 97.894531 165.707031 97.929688 165.722656 97.964844 C 166.085938 98.765625 165.585938 99.761719 165.96875 100.558594 C 166.183594 101.007812 166.640625 101.300781 166.933594 101.707031 C 167.175781 102.042969 167.289062 102.421875 167.320312 102.824219 C 167.59375 103.1875 167.792969 103.617188 167.914062 104.105469 C 168.613281 104.785156 168.960938 105.75 168.960938 107 C 168.960938 108.121094 168.628906 109.066406 167.960938 109.835938 C 167.289062 110.601562 166.230469 110.988281 164.785156 110.988281 C 163.417969 110.988281 162.332031 110.609375 161.523438 109.855469 C 161.121094 109.480469 160.8125 109.015625 160.59375 108.464844 C 160.546875 108.421875 160.496094 108.378906 160.449219 108.335938 C 159.953125 107.871094 159.59375 107.273438 159.371094 106.546875 L 155.492188 106.546875 C 155.53125 106.59375 155.574219 106.636719 155.613281 106.683594 " fill-opacity="1" fill-rule="nonzero"/><g clip-path="url(#id9)"><path fill="#e3bce2" d="M 151.496094 107.683594 C 151.324219 106.824219 151.230469 105.941406 151.226562 105.050781 L 159.125 105.050781 C 159.152344 105.597656 159.238281 106.097656 159.371094 106.546875 C 159.59375 107.273438 159.953125 107.871094 160.449219 108.335938 C 160.496094 108.378906 160.546875 108.421875 160.59375 108.464844 C 161.402344 109.148438 162.472656 109.492188 163.78125 109.492188 C 165.253906 109.492188 166.347656 109.09375 167.035156 108.304688 C 167.71875 107.523438 168.0625 106.546875 168.0625 105.402344 C 168.0625 104.929688 168.011719 104.5 167.914062 104.105469 C 167.792969 103.617188 167.59375 103.1875 167.320312 102.824219 C 167.171875 102.625 167.003906 102.445312 166.816406 102.28125 C 165.992188 101.582031 165 101.230469 163.863281 101.230469 C 163.648438 101.230469 163.4375 101.242188 163.238281 101.265625 C 163.175781 101.273438 163.113281 101.28125 163.054688 101.292969 C 162.835938 101.328125 162.597656 101.367188 162.339844 101.414062 L 162.339844 96.597656 C 162.515625 96.613281 162.667969 96.625 162.800781 96.625 L 163.195312 96.625 C 164.25 96.625 165.117188 96.308594 165.773438 95.691406 C 166.433594 95.070312 166.769531 94.257812 166.769531 93.273438 C 166.769531 93.019531 166.746094 92.777344 166.699219 92.546875 C 166.578125 91.914062 166.292969 91.375 165.839844 90.9375 C 165.222656 90.347656 164.417969 90.046875 163.445312 90.046875 C 162.417969 90.046875 161.578125 90.390625 160.945312 91.066406 C 160.339844 91.71875 160.019531 92.5625 160 93.582031 L 152.660156 93.582031 C 152.855469 92.03125 153.265625 90.628906 153.867188 89.414062 C 154.488281 88.167969 155.285156 87.105469 156.246094 86.257812 C 157.207031 85.40625 158.347656 84.75 159.636719 84.304688 C 160.929688 83.859375 162.378906 83.632812 163.949219 83.632812 C 165.488281 83.632812 166.902344 83.84375 168.15625 84.261719 C 169.402344 84.683594 170.488281 85.285156 171.378906 86.050781 C 172.097656 86.671875 172.683594 87.410156 173.136719 88.242188 C 173.246094 88.441406 173.347656 88.644531 173.441406 88.851562 C 173.921875 89.945312 174.164062 91.183594 174.164062 92.535156 C 174.164062 93.988281 173.878906 95.195312 173.320312 96.121094 C 172.761719 97.046875 171.949219 97.859375 170.910156 98.53125 L 170.726562 98.652344 L 170.9375 98.714844 C 171.632812 98.929688 172.265625 99.21875 172.832031 99.582031 C 173.550781 100.046875 174.164062 100.628906 174.664062 101.328125 C 174.84375 101.582031 175.007812 101.851562 175.148438 102.132812 C 175.421875 102.660156 175.625 103.226562 175.769531 103.839844 C 175.921875 104.503906 176.003906 105.21875 176.003906 105.976562 C 176.003906 107.488281 175.695312 108.886719 175.09375 110.128906 C 174.488281 111.371094 173.632812 112.449219 172.550781 113.339844 C 171.464844 114.234375 170.15625 114.933594 168.65625 115.417969 C 167.679688 115.738281 166.632812 115.949219 165.527344 116.0625 C 164.933594 116.121094 164.320312 116.152344 163.695312 116.152344 C 161.300781 116.152344 159.109375 115.6875 157.183594 114.765625 C 155.472656 113.949219 154.050781 112.683594 152.941406 111.003906 C 152.808594 110.796875 152.675781 110.585938 152.546875 110.367188 C 152.027344 109.476562 151.671875 108.574219 151.496094 107.683594 Z M 157.089844 114.949219 C 159.046875 115.886719 161.269531 116.359375 163.695312 116.359375 C 164.367188 116.359375 165.019531 116.324219 165.652344 116.257812 C 166.734375 116.140625 167.761719 115.925781 168.722656 115.613281 C 170.246094 115.117188 171.578125 114.40625 172.683594 113.5 C 173.789062 112.589844 174.664062 111.484375 175.28125 110.214844 C 175.898438 108.945312 176.210938 107.519531 176.210938 105.976562 C 176.210938 105.230469 176.136719 104.527344 175.988281 103.867188 C 175.902344 103.46875 175.785156 103.085938 175.640625 102.71875 C 175.429688 102.175781 175.160156 101.671875 174.832031 101.210938 C 174.332031 100.503906 173.71875 99.914062 172.996094 99.441406 C 172.457031 99.089844 171.859375 98.804688 171.203125 98.585938 C 172.183594 97.917969 172.957031 97.125 173.5 96.222656 C 174.078125 95.265625 174.371094 94.023438 174.371094 92.535156 C 174.371094 91.21875 174.144531 90.007812 173.695312 88.929688 C 173.675781 88.875 173.65625 88.824219 173.632812 88.769531 C 173.140625 87.652344 172.429688 86.6875 171.515625 85.898438 C 170.605469 85.113281 169.496094 84.496094 168.222656 84.070312 C 166.949219 83.640625 165.511719 83.425781 163.949219 83.425781 C 162.355469 83.425781 160.882812 83.65625 159.566406 84.109375 C 158.25 84.566406 157.085938 85.234375 156.105469 86.105469 C 155.128906 86.972656 154.3125 88.054688 153.679688 89.320312 C 153.050781 90.589844 152.632812 92.050781 152.4375 93.671875 L 152.421875 93.789062 L 160.207031 93.789062 L 160.207031 93.683594 C 160.207031 92.675781 160.507812 91.839844 161.101562 91.203125 C 161.6875 90.570312 162.476562 90.25 163.445312 90.25 C 164.359375 90.25 165.117188 90.53125 165.691406 91.085938 C 166.050781 91.433594 166.300781 91.851562 166.4375 92.335938 C 166.519531 92.625 166.558594 92.9375 166.558594 93.273438 C 166.558594 94.199219 166.246094 94.960938 165.628906 95.542969 C 165.011719 96.125 164.195312 96.417969 163.195312 96.417969 L 162.800781 96.417969 C 162.648438 96.417969 162.464844 96.40625 162.246094 96.378906 L 162.128906 96.363281 L 162.128906 101.660156 L 162.253906 101.636719 C 162.558594 101.582031 162.835938 101.535156 163.085938 101.496094 C 163.136719 101.488281 163.1875 101.484375 163.238281 101.476562 C 163.4375 101.453125 163.648438 101.433594 163.863281 101.433594 C 164.945312 101.433594 165.894531 101.773438 166.679688 102.4375 C 166.9375 102.660156 167.15625 102.917969 167.332031 103.214844 C 167.449219 103.410156 167.546875 103.625 167.625 103.855469 C 167.777344 104.308594 167.855469 104.824219 167.855469 105.402344 C 167.855469 106.496094 167.523438 107.429688 166.875 108.171875 C 166.230469 108.914062 165.191406 109.289062 163.78125 109.289062 C 162.449219 109.289062 161.378906 108.917969 160.59375 108.183594 C 160.546875 108.140625 160.5 108.097656 160.457031 108.050781 C 160.070312 107.644531 159.78125 107.140625 159.59375 106.546875 C 159.441406 106.070312 159.355469 105.539062 159.332031 104.945312 L 159.328125 104.847656 L 151.015625 104.847656 L 151.015625 104.949219 C 151.015625 105.886719 151.109375 106.820312 151.289062 107.722656 C 151.472656 108.636719 151.835938 109.558594 152.367188 110.46875 C 152.730469 111.101562 153.136719 111.683594 153.578125 112.210938 C 154.5625 113.386719 155.738281 114.304688 157.089844 114.949219 " fill-opacity="1" fill-rule="nonzero"/></g><g fill="#000000" fill-opacity="1"><g transform="translate(166.448615, 110.964691)"><g/></g></g><g fill="#000000" fill-opacity="1"><g transform="translate(178.834363, 110.964691)"><g><path d="M 3.078125 -25.96875 L 9.09375 -25.96875 L 9.09375 -4.890625 L 22.109375 -4.890625 L 22.109375 0 L 3.078125 0 Z M 3.078125 -25.96875 "/></g></g></g><g fill="#000000" fill-opacity="1"><g transform="translate(203.124032, 110.964691)"><g><path d="M 22.78125 -19.953125 L 22.78125 0 L 17.28125 0 L 17.28125 -2.375 C 16.519531 -1.507812 15.609375 -0.847656 14.546875 -0.390625 C 13.484375 0.0664062 12.332031 0.296875 11.09375 0.296875 C 8.46875 0.296875 6.390625 -0.457031 4.859375 -1.96875 C 3.328125 -3.476562 2.5625 -5.71875 2.5625 -8.6875 L 2.5625 -19.953125 L 8.34375 -19.953125 L 8.34375 -9.53125 C 8.34375 -6.3125 9.691406 -4.703125 12.390625 -4.703125 C 13.773438 -4.703125 14.882812 -5.15625 15.71875 -6.0625 C 16.5625 -6.96875 16.984375 -8.3125 16.984375 -10.09375 L 16.984375 -19.953125 Z M 22.78125 -19.953125 "/></g></g></g><g fill="#000000" fill-opacity="1"><g transform="translate(230.491556, 110.964691)"><g><path d="M 12.3125 0.296875 C 10.1875 0.296875 8.273438 -0.140625 6.578125 -1.015625 C 4.890625 -1.898438 3.566406 -3.117188 2.609375 -4.671875 C 1.660156 -6.234375 1.1875 -8.003906 1.1875 -9.984375 C 1.1875 -11.960938 1.660156 -13.726562 2.609375 -15.28125 C 3.566406 -16.84375 4.890625 -18.0625 6.578125 -18.9375 C 8.273438 -19.8125 10.1875 -20.25 12.3125 -20.25 C 14.414062 -20.25 16.25 -19.8125 17.8125 -18.9375 C 19.382812 -18.0625 20.53125 -16.804688 21.25 -15.171875 L 16.765625 -12.765625 C 15.722656 -14.585938 14.226562 -15.5 12.28125 -15.5 C 10.769531 -15.5 9.519531 -15.003906 8.53125 -14.015625 C 7.539062 -13.023438 7.046875 -11.679688 7.046875 -9.984375 C 7.046875 -8.273438 7.539062 -6.925781 8.53125 -5.9375 C 9.519531 -4.945312 10.769531 -4.453125 12.28125 -4.453125 C 14.257812 -4.453125 15.753906 -5.367188 16.765625 -7.203125 L 21.25 -4.75 C 20.53125 -3.164062 19.382812 -1.925781 17.8125 -1.03125 C 16.25 -0.144531 14.414062 0.296875 12.3125 0.296875 Z M 12.3125 0.296875 "/></g></g></g><g fill="#000000" fill-opacity="1"><g transform="translate(254.299163, 110.964691)"><g><path d="M 11.234375 -7.828125 L 8.453125 -5.078125 L 8.453125 0 L 2.671875 0 L 2.671875 -27.53125 L 8.453125 -27.53125 L 8.453125 -11.9375 L 16.921875 -19.953125 L 23.8125 -19.953125 L 15.5 -11.5 L 24.5625 0 L 17.546875 0 Z M 11.234375 -7.828125 "/></g></g></g><g fill="#000000" fill-opacity="1"><g transform="translate(182.713838, 124.573196)"><g><path d="M 2.25 -5.59375 L 0.046875 -5.59375 L 0.046875 -6.890625 L 6.046875 -6.890625 L 6.046875 -5.59375 L 3.84375 -5.59375 L 3.84375 0 L 2.25 0 Z M 2.25 -5.59375 "/></g></g></g><g fill="#000000" fill-opacity="1"><g transform="translate(190.82219, 124.573196)"><g><path d="M 6.15625 -1.28125 L 6.15625 0 L 0.8125 0 L 0.8125 -6.890625 L 6.03125 -6.890625 L 6.03125 -5.609375 L 2.40625 -5.609375 L 2.40625 -4.109375 L 5.59375 -4.109375 L 5.59375 -2.875 L 2.40625 -2.875 L 2.40625 -1.28125 Z M 6.15625 -1.28125 "/></g></g></g><g fill="#000000" fill-opacity="1"><g transform="translate(199.452086, 124.573196)"><g><path d="M 4.109375 0.125 C 3.410156 0.125 2.773438 -0.0234375 2.203125 -0.328125 C 1.640625 -0.640625 1.195312 -1.066406 0.875 -1.609375 C 0.550781 -2.148438 0.390625 -2.765625 0.390625 -3.453125 C 0.390625 -4.128906 0.550781 -4.738281 0.875 -5.28125 C 1.195312 -5.820312 1.640625 -6.242188 2.203125 -6.546875 C 2.773438 -6.859375 3.414062 -7.015625 4.125 -7.015625 C 4.71875 -7.015625 5.253906 -6.90625 5.734375 -6.6875 C 6.222656 -6.476562 6.628906 -6.175781 6.953125 -5.78125 L 5.9375 -4.84375 C 5.46875 -5.382812 4.890625 -5.65625 4.203125 -5.65625 C 3.773438 -5.65625 3.394531 -5.5625 3.0625 -5.375 C 2.726562 -5.1875 2.46875 -4.921875 2.28125 -4.578125 C 2.09375 -4.242188 2 -3.867188 2 -3.453125 C 2 -3.023438 2.09375 -2.640625 2.28125 -2.296875 C 2.46875 -1.960938 2.726562 -1.703125 3.0625 -1.515625 C 3.394531 -1.328125 3.773438 -1.234375 4.203125 -1.234375 C 4.890625 -1.234375 5.46875 -1.507812 5.9375 -2.0625 L 6.953125 -1.109375 C 6.628906 -0.710938 6.222656 -0.40625 5.734375 -0.1875 C 5.253906 0.0195312 4.710938 0.125 4.109375 0.125 Z M 4.109375 0.125 "/></g></g></g><g fill="#000000" fill-opacity="1"><g transform="translate(208.692077, 124.573196)"><g><path d="M 7.140625 -6.890625 L 7.140625 0 L 5.546875 0 L 5.546875 -2.828125 L 2.40625 -2.828125 L 2.40625 0 L 0.8125 0 L 0.8125 -6.890625 L 2.40625 -6.890625 L 2.40625 -4.171875 L 5.546875 -4.171875 L 5.546875 -6.890625 Z M 7.140625 -6.890625 "/></g></g></g><g fill="#000000" fill-opacity="1"><g transform="translate(218.670088, 124.573196)"><g><path d="M 7.140625 -6.890625 L 7.140625 0 L 5.828125 0 L 2.390625 -4.1875 L 2.390625 0 L 0.8125 0 L 0.8125 -6.890625 L 2.140625 -6.890625 L 5.5625 -2.703125 L 5.5625 -6.890625 Z M 7.140625 -6.890625 "/></g></g></g><g fill="#000000" fill-opacity="1"><g transform="translate(228.6481, 124.573196)"><g><path d="M 4.15625 0.125 C 3.4375 0.125 2.789062 -0.03125 2.21875 -0.34375 C 1.644531 -0.65625 1.195312 -1.082031 0.875 -1.625 C 0.550781 -2.164062 0.390625 -2.773438 0.390625 -3.453125 C 0.390625 -4.117188 0.550781 -4.722656 0.875 -5.265625 C 1.195312 -5.804688 1.644531 -6.234375 2.21875 -6.546875 C 2.789062 -6.859375 3.4375 -7.015625 4.15625 -7.015625 C 4.875 -7.015625 5.515625 -6.859375 6.078125 -6.546875 C 6.648438 -6.234375 7.097656 -5.804688 7.421875 -5.265625 C 7.753906 -4.722656 7.921875 -4.117188 7.921875 -3.453125 C 7.921875 -2.773438 7.753906 -2.164062 7.421875 -1.625 C 7.097656 -1.082031 6.648438 -0.65625 6.078125 -0.34375 C 5.515625 -0.03125 4.875 0.125 4.15625 0.125 Z M 4.15625 -1.234375 C 4.5625 -1.234375 4.925781 -1.328125 5.25 -1.515625 C 5.582031 -1.703125 5.84375 -1.960938 6.03125 -2.296875 C 6.21875 -2.640625 6.3125 -3.023438 6.3125 -3.453125 C 6.3125 -3.867188 6.21875 -4.242188 6.03125 -4.578125 C 5.84375 -4.921875 5.582031 -5.1875 5.25 -5.375 C 4.925781 -5.5625 4.5625 -5.65625 4.15625 -5.65625 C 3.75 -5.65625 3.378906 -5.5625 3.046875 -5.375 C 2.722656 -5.1875 2.46875 -4.921875 2.28125 -4.578125 C 2.09375 -4.242188 2 -3.867188 2 -3.453125 C 2 -3.023438 2.09375 -2.640625 2.28125 -2.296875 C 2.46875 -1.960938 2.722656 -1.703125 3.046875 -1.515625 C 3.378906 -1.328125 3.75 -1.234375 4.15625 -1.234375 Z M 4.15625 -1.234375 "/></g></g></g><g fill="#000000" fill-opacity="1"><g transform="translate(238.980352, 124.573196)"><g><path d="M 0.8125 -6.890625 L 2.40625 -6.890625 L 2.40625 -1.296875 L 5.859375 -1.296875 L 5.859375 0 L 0.8125 0 Z M 0.8125 -6.890625 "/></g></g></g><g fill="#000000" fill-opacity="1"><g transform="translate(246.950942, 124.573196)"><g><path d="M 4.15625 0.125 C 3.4375 0.125 2.789062 -0.03125 2.21875 -0.34375 C 1.644531 -0.65625 1.195312 -1.082031 0.875 -1.625 C 0.550781 -2.164062 0.390625 -2.773438 0.390625 -3.453125 C 0.390625 -4.117188 0.550781 -4.722656 0.875 -5.265625 C 1.195312 -5.804688 1.644531 -6.234375 2.21875 -6.546875 C 2.789062 -6.859375 3.4375 -7.015625 4.15625 -7.015625 C 4.875 -7.015625 5.515625 -6.859375 6.078125 -6.546875 C 6.648438 -6.234375 7.097656 -5.804688 7.421875 -5.265625 C 7.753906 -4.722656 7.921875 -4.117188 7.921875 -3.453125 C 7.921875 -2.773438 7.753906 -2.164062 7.421875 -1.625 C 7.097656 -1.082031 6.648438 -0.65625 6.078125 -0.34375 C 5.515625 -0.03125 4.875 0.125 4.15625 0.125 Z M 4.15625 -1.234375 C 4.5625 -1.234375 4.925781 -1.328125 5.25 -1.515625 C 5.582031 -1.703125 5.84375 -1.960938 6.03125 -2.296875 C 6.21875 -2.640625 6.3125 -3.023438 6.3125 -3.453125 C 6.3125 -3.867188 6.21875 -4.242188 6.03125 -4.578125 C 5.84375 -4.921875 5.582031 -5.1875 5.25 -5.375 C 4.925781 -5.5625 4.5625 -5.65625 4.15625 -5.65625 C 3.75 -5.65625 3.378906 -5.5625 3.046875 -5.375 C 2.722656 -5.1875 2.46875 -4.921875 2.28125 -4.578125 C 2.09375 -4.242188 2 -3.867188 2 -3.453125 C 2 -3.023438 2.09375 -2.640625 2.28125 -2.296875 C 2.46875 -1.960938 2.722656 -1.703125 3.046875 -1.515625 C 3.378906 -1.328125 3.75 -1.234375 4.15625 -1.234375 Z M 4.15625 -1.234375 "/></g></g></g><g fill="#000000" fill-opacity="1"><g transform="translate(257.283194, 124.573196)"><g><path d="M 5.46875 -3.546875 L 6.9375 -3.546875 L 6.9375 -0.765625 C 6.5625 -0.472656 6.125 -0.25 5.625 -0.09375 C 5.132812 0.0507812 4.640625 0.125 4.140625 0.125 C 3.429688 0.125 2.789062 -0.0234375 2.21875 -0.328125 C 1.644531 -0.640625 1.195312 -1.066406 0.875 -1.609375 C 0.550781 -2.148438 0.390625 -2.765625 0.390625 -3.453125 C 0.390625 -4.128906 0.550781 -4.738281 0.875 -5.28125 C 1.195312 -5.820312 1.644531 -6.242188 2.21875 -6.546875 C 2.800781 -6.859375 3.453125 -7.015625 4.171875 -7.015625 C 4.773438 -7.015625 5.320312 -6.910156 5.8125 -6.703125 C 6.3125 -6.503906 6.726562 -6.207031 7.0625 -5.8125 L 6.03125 -4.875 C 5.539062 -5.394531 4.945312 -5.65625 4.25 -5.65625 C 3.8125 -5.65625 3.421875 -5.5625 3.078125 -5.375 C 2.734375 -5.1875 2.46875 -4.925781 2.28125 -4.59375 C 2.09375 -4.257812 2 -3.878906 2 -3.453125 C 2 -3.023438 2.09375 -2.640625 2.28125 -2.296875 C 2.46875 -1.960938 2.726562 -1.703125 3.0625 -1.515625 C 3.40625 -1.328125 3.796875 -1.234375 4.234375 -1.234375 C 4.691406 -1.234375 5.101562 -1.332031 5.46875 -1.53125 Z M 5.46875 -3.546875 "/></g></g></g><g fill="#000000" fill-opacity="1"><g transform="translate(266.897106, 124.573196)"><g><path d="M 4.125 -2.4375 L 4.125 0 L 2.53125 0 L 2.53125 -2.46875 L -0.140625 -6.890625 L 1.5625 -6.890625 L 3.390625 -3.828125 L 5.234375 -6.890625 L 6.796875 -6.890625 Z M 4.125 -2.4375 "/></g></g></g></svg>