<svg xmlns="http://www.w3.org/2000/svg" xmlns:xlink="http://www.w3.org/1999/xlink" width="500" zoomAndPan="magnify" viewBox="0 0 375 374.999991" height="500" preserveAspectRatio="xMidYMid meet" version="1.0"><defs><clipPath id="id1"><path d="M 95.621094 123.535156 L 279.371094 123.535156 L 279.371094 251.785156 L 95.621094 251.785156 Z M 95.621094 123.535156 " clip-rule="nonzero"/></clipPath></defs><g clip-path="url(#id1)"><path fill="#000000" d="M 183.101562 69.335938 C 161.675781 70.195312 142.339844 75.773438 124.175781 86.347656 C 110.246094 94.445312 97.347656 105.976562 87.316406 119.246094 C 73.054688 138.113281 64.566406 160.84375 62.695312 185.117188 C 62.402344 188.980469 62.402344 199.148438 62.695312 203.070312 C 64.371094 224.960938 71.28125 245.195312 83.261719 263.164062 C 90.988281 274.792969 101.210938 285.621094 112.371094 293.992188 C 131.453125 308.335938 153.949219 316.722656 178.222656 318.597656 C 182.125 318.910156 192.273438 318.910156 196.175781 318.597656 C 220.464844 316.722656 242.945312 308.335938 262.027344 293.992188 C 271.195312 287.085938 280.230469 278.070312 287.078125 268.921875 C 301.460938 249.761719 309.828125 227.378906 311.703125 203.070312 C 312.015625 199.167969 312.015625 189.019531 311.703125 185.117188 C 310.003906 163.148438 303.136719 143.03125 291.15625 125.023438 C 283.410156 113.394531 273.246094 102.621094 262.027344 94.191406 C 243.082031 79.949219 219.976562 71.285156 196.46875 69.628906 C 193.363281 69.414062 185.597656 69.238281 183.101562 69.335938 Z M 197.929688 82.757812 C 214.535156 84.417969 230.574219 89.6875 244.484375 98.035156 C 256.894531 105.511719 268.015625 115.480469 276.582031 126.875 C 298.882812 156.511719 305.011719 195.207031 292.972656 230.464844 C 283.390625 258.539062 262.457031 282.03125 235.492188 294.988281 C 212.5625 305.992188 186.183594 308.78125 161.152344 302.871094 C 130.984375 295.730469 104.800781 275.886719 89.484375 248.53125 C 74.089844 221 71.144531 187.867188 81.425781 157.722656 C 90.246094 131.890625 108.683594 109.859375 132.761719 96.378906 C 146.652344 88.613281 161.988281 83.96875 178.320312 82.601562 C 182.574219 82.234375 193.597656 82.328125 197.929688 82.757812 Z M 197.929688 82.757812 " fill-opacity="1" fill-rule="nonzero"/></g><path fill="#000000" d="M 182.652344 124.828125 C 181.480469 124.925781 180.429688 125.042969 180.273438 125.082031 C 180.136719 125.140625 179.921875 125.800781 179.785156 126.621094 C 179.140625 130.503906 178.4375 134.054688 178.28125 134.191406 C 178.066406 134.386719 167.316406 137.371094 166.730469 137.390625 C 166.339844 137.410156 165.851562 136.828125 163.746094 133.898438 C 162.359375 131.96875 161.113281 130.367188 160.976562 130.328125 C 160.625 130.25 156.019531 132.574219 153.542969 134.09375 C 152.371094 134.816406 150.417969 136.105469 149.210938 136.960938 L 147.023438 138.523438 L 147.394531 139.441406 C 147.589844 139.929688 148.371094 141.898438 149.132812 143.8125 L 150.515625 147.285156 L 149.988281 147.929688 C 149.679688 148.28125 147.804688 150.367188 145.777344 152.570312 L 142.125 156.570312 L 137.875 154.835938 C 135.121094 153.703125 133.542969 153.15625 133.367188 153.253906 C 132.761719 153.625 127.648438 162.542969 127.921875 162.757812 C 127.941406 162.796875 128.859375 163.304688 129.953125 163.910156 C 131.804688 164.921875 133.035156 165.527344 135.765625 166.777344 L 136.9375 167.304688 L 139.121094 164.472656 C 145.171875 156.6875 149.5625 152.164062 154.4375 148.707031 C 156.625 147.167969 156.527344 147.324219 153.792969 149.976562 C 150.925781 152.746094 148 155.949219 145.699219 158.816406 C 143.042969 162.152344 139.375 168.007812 139.726562 168.355469 C 139.824219 168.453125 140.878906 168.882812 142.085938 169.3125 L 144.273438 170.09375 L 145.171875 168.277344 C 146.242188 166.132812 148.820312 162.210938 150.574219 160.046875 C 152.058594 158.210938 155.902344 154.425781 157.832031 152.902344 C 164.605469 147.539062 172.976562 144.027344 181.636719 142.953125 C 184.175781 142.621094 190.476562 142.621094 192.953125 142.953125 C 208.582031 144.941406 221.851562 154.054688 229.265625 167.871094 C 229.871094 168.980469 230.4375 169.898438 230.535156 169.898438 C 230.632812 169.898438 231.042969 169.78125 231.433594 169.625 C 231.839844 169.46875 232.816406 169.117188 233.597656 168.824219 L 235.023438 168.296875 L 234.300781 167.011719 C 231.21875 161.46875 227.335938 156.550781 221.441406 150.699219 C 218.222656 147.480469 218.164062 147.421875 219.589844 148.398438 C 224.699219 151.890625 228.933594 156.203125 235.199219 164.242188 C 236.875 166.367188 237.519531 167.070312 237.8125 167.03125 C 238.320312 166.992188 241.871094 165.3125 244.601562 163.8125 L 246.691406 162.660156 L 246.398438 161.996094 C 246.007812 161.058594 244.679688 158.5625 243.527344 156.628906 C 242.554688 155.011719 240.699219 152.144531 240.601562 152.144531 C 240.582031 152.144531 238.574219 152.804688 236.171875 153.605469 C 233.773438 154.40625 231.703125 155.070312 231.589844 155.070312 C 231.375 155.070312 227.511719 151.226562 224.113281 147.636719 L 222.710938 146.152344 L 224.660156 142.152344 C 225.734375 139.949219 226.613281 138.054688 226.613281 137.957031 C 226.613281 137.761719 226.320312 137.546875 224.269531 136.125 C 221.695312 134.328125 215.941406 131.070312 215.355469 131.070312 C 215.257812 131.070312 213.792969 132.613281 212.097656 134.484375 C 209.96875 136.847656 208.894531 137.878906 208.679688 137.820312 C 204.582031 136.632812 197.089844 134.386719 197.011719 134.308594 C 196.992188 134.289062 196.875 132.613281 196.757812 130.582031 C 196.640625 128.535156 196.507812 126.523438 196.449219 126.074219 L 196.351562 125.273438 L 194.066406 125.042969 C 191.042969 124.730469 185.285156 124.613281 182.652344 124.828125 Z M 182.652344 124.828125 " fill-opacity="1" fill-rule="nonzero"/><path fill="#000000" d="M 96.390625 141.683594 C 93.972656 157.214844 104.371094 169.058594 127.980469 177.664062 C 130.671875 178.640625 135.6875 180.296875 137.894531 180.921875 C 138.496094 181.097656 139.003906 181.273438 139.003906 181.332031 C 139.003906 181.507812 130.925781 180.335938 127.492188 179.65625 C 116.3125 177.410156 107.824219 173.820312 100.195312 168.125 L 99.335938 167.480469 L 99.472656 168.453125 C 99.960938 171.910156 101.269531 174.640625 103.667969 177.15625 C 108.976562 182.757812 118.1875 186.015625 134.070312 187.945312 C 136.3125 188.21875 138.554688 188.433594 139.023438 188.453125 C 139.707031 188.453125 139.785156 188.492188 139.472656 188.628906 C 138.671875 188.941406 131.335938 189.273438 127.6875 189.15625 C 122.574219 188.980469 118.730469 188.472656 114.578125 187.441406 C 112.078125 186.816406 108.585938 185.625 107.238281 184.941406 C 106.773438 184.707031 106.324219 184.550781 106.265625 184.609375 C 106.207031 184.667969 106.558594 185.546875 107.0625 186.542969 C 109.542969 191.519531 114.460938 194.464844 122.613281 195.867188 C 124.976562 196.277344 125.855469 196.316406 131.199219 196.316406 C 136.664062 196.316406 141.015625 196.042969 143.257812 195.535156 C 143.960938 195.382812 143.589844 195.789062 142.554688 196.316406 C 141.132812 197.019531 138.730469 197.742188 136.273438 198.210938 C 132.410156 198.914062 122.691406 198.933594 119.21875 198.25 L 118.632812 198.132812 L 119.0625 198.738281 C 119.609375 199.496094 121.601562 201 123.042969 201.722656 C 126.128906 203.28125 129.015625 203.75 134.164062 203.59375 C 138.007812 203.476562 140.449219 203.070312 144.644531 201.917969 C 145.832031 201.585938 146.867188 201.3125 146.925781 201.3125 C 147.238281 201.3125 145.910156 202.171875 144.527344 202.855469 C 141.191406 204.53125 137.113281 205.449219 132.917969 205.488281 C 131.433594 205.488281 130.222656 205.546875 130.222656 205.605469 C 130.242188 205.761719 134.28125 207.554688 135.785156 208.082031 C 139.003906 209.195312 142.4375 209.410156 146.515625 208.726562 C 147.804688 208.511719 148.957031 208.335938 149.054688 208.335938 C 149.347656 208.335938 148.234375 209.214844 146.90625 210.035156 L 145.738281 210.757812 L 147.101562 211.183594 C 147.863281 211.417969 148.800781 211.652344 149.210938 211.730469 L 149.929688 211.867188 L 149.929688 175.832031 L 148.136719 175.363281 C 145.191406 174.640625 140.273438 172.960938 137.289062 171.675781 C 123.785156 165.898438 112.46875 157.175781 99.199219 142.328125 C 97.894531 140.863281 96.78125 139.65625 96.761719 139.65625 C 96.742188 139.65625 96.566406 140.574219 96.390625 141.683594 Z M 96.390625 141.683594 " fill-opacity="1" fill-rule="nonzero"/><path fill="#000000" d="M 276.09375 141.332031 C 262.515625 156.707031 250.535156 166.015625 236.933594 171.753906 C 234.046875 172.980469 229.070312 174.660156 226.28125 175.363281 L 224.464844 175.832031 L 224.464844 211.867188 L 225.207031 211.730469 C 225.597656 211.652344 226.535156 211.417969 227.296875 211.183594 L 228.660156 210.757812 L 227.492188 210.035156 C 226.164062 209.214844 225.050781 208.335938 225.34375 208.335938 C 225.460938 208.335938 226.59375 208.511719 227.878906 208.726562 C 231.976562 209.410156 235.296875 209.195312 238.632812 208.0625 C 240.09375 207.574219 244.152344 205.761719 244.171875 205.605469 C 244.171875 205.546875 243.003906 205.507812 241.578125 205.488281 C 236.816406 205.46875 232.152344 204.277344 228.5625 202.171875 C 227.898438 201.78125 227.414062 201.429688 227.453125 201.390625 C 227.492188 201.332031 228.523438 201.566406 229.734375 201.898438 C 233.949219 203.070312 236.386719 203.476562 240.230469 203.59375 C 245.382812 203.75 248.269531 203.28125 251.351562 201.722656 C 252.777344 201 254.789062 199.496094 255.3125 198.738281 L 255.742188 198.152344 L 254.984375 198.269531 C 251.742188 198.796875 244.132812 198.953125 240.757812 198.582031 C 237.246094 198.191406 233.871094 197.332031 231.839844 196.316406 C 230.808594 195.789062 230.4375 195.382812 231.140625 195.535156 C 233.402344 196.042969 237.714844 196.335938 243.296875 196.316406 C 248.738281 196.316406 249.597656 196.277344 251.859375 195.867188 C 259.996094 194.425781 264.875 191.480469 267.332031 186.542969 C 267.839844 185.546875 268.191406 184.667969 268.132812 184.609375 C 268.074219 184.550781 267.644531 184.6875 267.195312 184.921875 C 265.871094 185.605469 262.222656 186.835938 259.800781 187.441406 C 253.714844 188.960938 246.75 189.488281 239.21875 189.039062 C 237.089844 188.902344 235.160156 188.726562 234.925781 188.628906 C 234.613281 188.492188 234.691406 188.453125 235.375 188.453125 C 236.699219 188.433594 244.113281 187.5 247.179688 186.972656 C 258.945312 184.941406 266.242188 181.898438 270.726562 177.15625 C 273.128906 174.640625 274.4375 171.910156 274.921875 168.453125 L 275.058594 167.480469 L 274.203125 168.125 C 266.144531 174.152344 256.992188 177.859375 244.855469 180.023438 C 241.441406 180.648438 235.566406 181.449219 235.433594 181.3125 C 235.394531 181.273438 235.878906 181.097656 236.503906 180.921875 C 238.59375 180.335938 243.082031 178.855469 246.085938 177.78125 C 261.519531 172.21875 271.605469 165.078125 275.761719 156.746094 C 277.753906 152.746094 278.4375 149.507812 278.261719 144.941406 C 278.183594 143.382812 278.027344 141.527344 277.890625 140.84375 L 277.636719 139.597656 Z M 276.09375 141.332031 " fill-opacity="1" fill-rule="nonzero"/><path fill="#000000" d="M 154.417969 189.507812 L 154.417969 203.457031 L 179.882812 203.457031 L 183.355469 196.648438 C 185.246094 192.902344 186.808594 189.742188 186.808594 189.625 C 186.808594 189.46875 185.636719 189.410156 183.101562 189.410156 C 181.070312 189.410156 179.394531 189.371094 179.394531 189.332031 C 179.394531 189.292969 179.824219 188.335938 180.351562 187.226562 C 180.878906 186.132812 181.597656 184.550781 181.988281 183.753906 C 182.359375 182.953125 183.121094 181.3125 183.6875 180.140625 C 184.253906 178.953125 184.953125 177.449219 185.265625 176.765625 L 185.8125 175.558594 L 154.417969 175.558594 Z M 171.980469 189.214844 L 171.980469 191.363281 L 166.027344 191.363281 L 160.078125 191.34375 L 160.078125 187.070312 L 171.980469 187.070312 Z M 171.980469 189.214844 " fill-opacity="1" fill-rule="nonzero"/><path fill="#000000" d="M 192.699219 179.90625 L 189.304688 184.238281 L 192.585938 184.335938 L 195.84375 184.433594 L 188.019531 193.859375 C 183.707031 199.03125 180.175781 203.320312 180.175781 203.359375 C 180.175781 203.417969 189.265625 203.457031 200.371094 203.457031 L 220.5625 203.457031 L 220.5625 175.558594 L 196.078125 175.558594 Z M 209.636719 185.117188 L 209.636719 187.070312 L 213.558594 187.070312 L 213.5 189.15625 L 213.441406 191.265625 L 211.550781 191.324219 L 209.636719 191.382812 L 209.636719 195.285156 L 207.550781 195.226562 L 205.441406 195.167969 L 205.382812 193.273438 L 205.324219 191.382812 L 203.433594 191.324219 L 201.539062 191.265625 L 201.539062 187.167969 L 203.453125 187.109375 L 205.34375 187.050781 L 205.34375 183.167969 L 209.636719 183.167969 Z M 209.636719 185.117188 " fill-opacity="1" fill-rule="nonzero"/><path fill="#000000" d="M 121.054688 233.410156 L 121.054688 248.960938 L 127.453125 248.882812 C 133.25 248.804688 133.953125 248.765625 135.042969 248.394531 C 138.242188 247.339844 139.902344 245.292969 140.390625 241.78125 C 140.78125 239.027344 140.292969 236.160156 139.21875 234.792969 C 138.691406 234.132812 137.5625 233.136719 136.859375 232.707031 C 136.625 232.570312 136.664062 232.453125 137.152344 232.101562 C 138.164062 231.339844 138.847656 230.523438 139.375 229.410156 C 139.84375 228.433594 139.882812 228.121094 139.882812 225.898438 C 139.882812 223.671875 139.84375 223.359375 139.375 222.367188 C 138.398438 220.296875 136.859375 219.066406 134.398438 218.367188 C 133.464844 218.09375 132.097656 218.015625 127.160156 217.957031 L 121.054688 217.859375 Z M 131.804688 224.003906 C 132.742188 224.609375 133.113281 226.074219 132.78125 227.710938 C 132.410156 229.390625 131.765625 229.839844 129.308594 230.054688 L 128.273438 230.132812 L 128.273438 223.496094 L 129.796875 223.59375 C 130.75 223.652344 131.492188 223.808594 131.804688 224.003906 Z M 131.765625 236.21875 C 132.917969 236.765625 133.25 237.410156 133.308594 239.320312 C 133.367188 240.785156 133.308594 241.136719 132.917969 241.898438 C 132.371094 242.96875 131.726562 243.242188 129.699219 243.242188 L 128.273438 243.261719 L 128.273438 235.632812 L 129.699219 235.75 C 130.457031 235.828125 131.394531 236.023438 131.765625 236.21875 Z M 131.765625 236.21875 " fill-opacity="1" fill-rule="nonzero"/><path fill="#000000" d="M 143.101562 233.410156 L 143.101562 248.921875 L 150.320312 248.921875 L 150.320312 236.042969 L 155.394531 236.042969 L 155.394531 248.921875 L 162.417969 248.921875 L 162.417969 217.898438 L 155.394531 217.898438 L 155.394531 229.800781 L 150.320312 229.800781 L 150.320312 217.898438 L 143.101562 217.898438 Z M 143.101562 233.410156 " fill-opacity="1" fill-rule="nonzero"/><path fill="#000000" d="M 172.566406 217.976562 C 172.566406 218.035156 171.902344 221.078125 171.101562 224.765625 C 169.054688 234.230469 165.929688 248.746094 165.929688 248.84375 C 165.929688 248.882812 167.550781 248.921875 169.5 248.921875 L 173.09375 248.921875 L 173.421875 246.519531 C 173.597656 245.214844 173.792969 243.847656 173.851562 243.496094 L 173.96875 242.871094 L 176.761719 242.871094 C 179.492188 242.871094 179.550781 242.871094 179.648438 243.300781 C 179.707031 243.554688 179.941406 244.921875 180.195312 246.324219 L 180.625 248.921875 L 184.214844 248.921875 C 186.945312 248.921875 187.785156 248.863281 187.785156 248.667969 C 187.785156 248.550781 187.648438 247.867188 187.472656 247.164062 C 187.316406 246.460938 186.828125 244.238281 186.398438 242.230469 C 185.988281 240.21875 185.558594 238.191406 185.441406 237.742188 C 185.285156 237.058594 183.609375 229.214844 181.65625 220.042969 L 181.226562 217.996094 L 176.898438 217.9375 C 174.515625 217.917969 172.566406 217.9375 172.566406 217.976562 Z M 177.910156 230.484375 C 178.398438 234.015625 178.808594 237.039062 178.808594 237.15625 C 178.808594 237.351562 178.261719 237.410156 176.742188 237.410156 L 174.671875 237.410156 L 174.769531 236.863281 C 174.828125 236.570312 175.296875 233.507812 175.804688 230.035156 C 176.332031 226.582031 176.800781 223.808594 176.859375 223.886719 C 176.9375 223.984375 177.402344 226.929688 177.910156 230.484375 Z M 177.910156 230.484375 " fill-opacity="1" fill-rule="nonzero"/><path fill="#000000" d="M 191.296875 233.410156 L 191.296875 248.921875 L 198.320312 248.921875 L 198.359375 242.8125 L 198.417969 236.726562 L 200.058594 236.726562 C 201.65625 236.726562 201.695312 236.746094 202.203125 237.371094 C 203.042969 238.367188 203.199219 239.164062 203.394531 243.652344 C 203.492188 245.957031 203.628906 248.082031 203.707031 248.375 L 203.824219 248.921875 L 207.707031 248.921875 C 209.832031 248.921875 211.589844 248.863281 211.589844 248.765625 C 211.589844 248.6875 211.394531 248.140625 211.179688 247.554688 C 210.808594 246.636719 210.730469 245.898438 210.613281 242.289062 C 210.457031 237.878906 210.28125 236.84375 209.539062 235.535156 C 209.03125 234.675781 208.425781 234.191406 207.355469 233.820312 L 206.691406 233.585938 L 207.648438 232.960938 C 209.890625 231.515625 210.886719 228.570312 210.417969 224.785156 C 209.910156 220.785156 207.960938 218.757812 203.941406 218.09375 C 203.257812 217.996094 200.136719 217.898438 197.011719 217.898438 L 191.296875 217.898438 Z M 202.144531 224.003906 C 203.003906 224.453125 203.394531 225.527344 203.394531 227.417969 C 203.394531 229.234375 202.925781 230.40625 202.046875 230.851562 C 201.65625 231.066406 200.933594 231.164062 199.882812 231.164062 L 198.320312 231.164062 L 198.320312 223.496094 L 199.941406 223.59375 C 200.875 223.652344 201.792969 223.808594 202.144531 224.003906 Z M 202.144531 224.003906 " fill-opacity="1" fill-rule="nonzero"/><path fill="#000000" d="M 221.441406 218.132812 C 221.382812 218.269531 220.738281 221.234375 219.976562 224.726562 C 218.671875 230.792969 216.25 242.09375 215.238281 246.714844 L 214.769531 248.921875 L 218.320312 248.921875 C 221.851562 248.921875 221.890625 248.921875 222.007812 248.472656 C 222.066406 248.238281 222.261719 246.871094 222.457031 245.449219 L 222.789062 242.871094 L 228.484375 242.871094 L 228.953125 245.703125 C 229.207031 247.242188 229.460938 248.609375 229.539062 248.726562 C 229.617188 248.863281 230.867188 248.921875 233.1875 248.882812 L 236.699219 248.824219 L 234.300781 237.605469 C 232.972656 231.4375 231.492188 224.53125 231.003906 222.269531 C 230.515625 220.003906 230.125 218.113281 230.125 218.035156 C 230.125 217.957031 228.191406 217.898438 225.832031 217.898438 C 222.574219 217.898438 221.5 217.957031 221.441406 218.132812 Z M 226.710938 229.996094 C 227.179688 233.371094 227.628906 236.433594 227.6875 236.765625 L 227.800781 237.410156 L 225.734375 237.410156 C 223.898438 237.410156 223.6875 237.371094 223.6875 237.058594 C 223.6875 236.863281 223.957031 234.949219 224.269531 232.804688 C 224.855469 228.980469 225.617188 223.867188 225.65625 223.59375 C 225.695312 223.183594 225.910156 224.433594 226.710938 229.996094 Z M 226.710938 229.996094 " fill-opacity="1" fill-rule="nonzero"/><path fill="#000000" d="M 235.199219 221.019531 L 235.199219 224.140625 L 240.660156 224.140625 L 240.660156 248.921875 L 247.878906 248.921875 L 247.878906 224.160156 L 250.769531 224.101562 L 253.636719 224.042969 L 253.695312 220.960938 L 253.753906 217.898438 L 235.199219 217.898438 Z M 235.199219 221.019531 " fill-opacity="1" fill-rule="nonzero"/></svg>